# xmcd
#
# Track frame offsets:
#	150
#	9475
#	21113
#	32113
#	43725
#	60238
#	70575
#	78525
#	90487
#	102800
#	105650
#	118400
#	130350
#	143438
#	156038
#	169100
#	180913
#	194763
#	207825
#	218500
#
# Disc length: 3037 seconds
#
# Revision: 1
# Processed by: cddbd v1.5.2PL0 Copyright (c) Steve Scherf et al.
# Submitted via: audiograbber 1.83.01
#
DISCID=060bdb14
DTITLE=Freddy Fender - Teardrops
DYEAR=1900
DGENRE=
TTITLE0=She s gone
TTITLE1=She s about a mover
TTITLE2=the rain came
TTITLE3=you loose agood thing
TTITLE4=wild side of life
TTITLE5=teardrop
TTITLE6=wasted days
TTITLE7=crazy baby
TTITLE8=loving cajun style
TTITLE9=what did I say
TTITLE10=almost persuaded
TTITLE11=sweet summer day
TTITLE12=girls who wait on tables
TTITLE13=enter my heart
TTITLE14=going out with the tide
TTITLE15=I m leaving it up to you
TTITLE16=baby I want to love you
TTITLE17=silver wings
TTITLE18=a man can cry
TTITLE19=running back
EXTD=
EXTT0=
EXTT1=
EXTT2=
EXTT3=
EXTT4=
EXTT5=
EXTT6=
EXTT7=
EXTT8=
EXTT9=
EXTT10=
EXTT11=
EXTT12=
EXTT13=
EXTT14=
EXTT15=
EXTT16=
EXTT17=
EXTT18=
EXTT19=
PLAYORDER=
